<svg xmlns="http://www.w3.org/2000/svg" width="1200" height="660" viewBox="0 0 1200 660" role="img" aria-labelledby="title desc">
  <title id="title">Agentusage browser dashboard</title>
  <desc id="desc">A dark dashboard showing provider usage cards, token metrics, a trend chart, model breakdowns, and date range controls.</desc>
  <rect width="1200" height="660" rx="18" fill="#181923"/>
  <rect x="1" y="1" width="1198" height="658" rx="17" fill="none" stroke="#454557" stroke-width="2"/>
  <circle cx="30" cy="35" r="6" fill="#f7f2f4"/>
  <text x="48" y="42" fill="#f7f2f4" font-family="ui-monospace, monospace" font-size="22" font-weight="700">Agentusage</text>
  <g font-family="ui-monospace, monospace" font-size="15" text-anchor="middle">
    <rect x="844" y="18" width="72" height="35" rx="5" fill="#292a3a" stroke="#e9b4c9"/><text x="880" y="41" fill="#e9b4c9">Today</text>
    <rect x="926" y="18" width="82" height="35" rx="5" fill="#292a3a" stroke="#666"/><text x="967" y="41" fill="#eee">7 Days</text>
    <rect x="1018" y="18" width="84" height="35" rx="5" fill="#292a3a" stroke="#666"/><text x="1060" y="41" fill="#eee">30 Days</text>
    <rect x="1112" y="18" width="72" height="35" rx="5" fill="#292a3a" stroke="#666"/><text x="1148" y="41" fill="#eee">All Time</text>
  </g>
  <line x1="0" y1="70" x2="1200" y2="70" stroke="#454557"/>
  <g font-family="ui-monospace, monospace">
    <rect x="18" y="88" width="572" height="552" rx="9" fill="#1e1f2b" stroke="#555568"/>
    <text x="36" y="128" fill="#e9b4c9" font-size="21" font-weight="700">codex</text>
    <rect x="468" y="104" width="104" height="30" rx="4" fill="#292a3a" stroke="#666"/><text x="520" y="124" fill="#eee" font-size="13" text-anchor="middle">Download PNG</text>
    <text x="36" y="155" fill="#9e9eb2" font-size="14">Window: today</text>
    <g font-size="16"><text x="36" y="195" fill="#ddd">tokens</text><text x="570" y="195" fill="#fff" text-anchor="end" font-weight="700">1,248,320</text><text x="36" y="229" fill="#ddd">requests</text><text x="570" y="229" fill="#fff" text-anchor="end" font-weight="700">84</text><text x="36" y="263" fill="#ddd">sessions</text><text x="570" y="263" fill="#fff" text-anchor="end" font-weight="700">12</text><text x="36" y="297" fill="#ddd">cost</text><text x="570" y="297" fill="#fff" text-anchor="end" font-weight="700">$2.431820</text></g>
    <g stroke="#30313f"><line x1="36" y1="207" x2="570" y2="207"/><line x1="36" y1="241" x2="570" y2="241"/><line x1="36" y1="275" x2="570" y2="275"/><line x1="36" y1="309" x2="570" y2="309"/></g>
    <text x="36" y="347" fill="#d9a7c0" font-size="17" font-weight="700">Token usage trend</text>
    <g stroke="#363746"><line x1="64" y1="378" x2="560" y2="378"/><line x1="64" y1="432" x2="560" y2="432"/><line x1="64" y1="486" x2="560" y2="486"/></g>
    <path d="M68 471 L148 448 L228 458 L308 402 L388 421 L468 371 L548 393" fill="none" stroke="#e9b4c9" stroke-width="4" stroke-linecap="round" stroke-linejoin="round"/>
    <path d="M68 482 L148 470 L228 474 L308 446 L388 454 L468 422 L548 435" fill="none" stroke="#8ed1c5" stroke-width="2.5"/>
    <g fill="#1e1f2b" stroke="#e9b4c9" stroke-width="2"><circle cx="68" cy="471" r="4"/><circle cx="148" cy="448" r="4"/><circle cx="228" cy="458" r="4"/><circle cx="308" cy="402" r="4"/><circle cx="388" cy="421" r="4"/><circle cx="468" cy="371" r="4"/><circle cx="548" cy="393" r="4"/></g>
    <g font-size="12" fill="#9e9eb2"><text x="64" y="510">07-15</text><text x="292" y="510">07-18</text><text x="526" y="510">07-21</text></g>
    <circle cx="42" cy="536" r="5" fill="#e9b4c9"/><text x="54" y="541" fill="#9e9eb2" font-size="12">total</text><circle cx="108" cy="536" r="5" fill="#8ed1c5"/><text x="120" y="541" fill="#9e9eb2" font-size="12">gpt-5</text>
    <text x="36" y="577" fill="#d9a7c0" font-size="17" font-weight="700">Model burn</text>
    <g font-size="12"><text x="36" y="607" fill="#9e9eb2">model</text><text x="286" y="607" fill="#9e9eb2">input</text><text x="380" y="607" fill="#9e9eb2">output</text><text x="570" y="607" fill="#9e9eb2" text-anchor="end">total</text><line x1="36" y1="617" x2="570" y2="617" stroke="#38394a"/><text x="36" y="634" fill="#e9b4c9">gpt-5</text><text x="286" y="634" fill="#ddd">982,640</text><text x="380" y="634" fill="#ddd">265,680</text><text x="570" y="634" fill="#ddd" text-anchor="end">1,248,320</text></g>
    <rect x="608" y="88" width="574" height="552" rx="9" fill="#1e1f2b" stroke="#555568"/>
    <text x="626" y="128" fill="#e9b4c9" font-size="21" font-weight="700">claude_code</text>
    <rect x="1060" y="104" width="104" height="30" rx="4" fill="#292a3a" stroke="#666"/><text x="1112" y="124" fill="#eee" font-size="13" text-anchor="middle">Download PNG</text>
    <text x="626" y="155" fill="#9e9eb2" font-size="14">Window: today</text>
    <g font-size="16"><text x="626" y="195" fill="#ddd">tokens</text><text x="1164" y="195" fill="#fff" text-anchor="end" font-weight="700">486,911</text><text x="626" y="229" fill="#ddd">requests</text><text x="1164" y="229" fill="#fff" text-anchor="end" font-weight="700">31</text><text x="626" y="263" fill="#ddd">sessions</text><text x="1164" y="263" fill="#fff" text-anchor="end" font-weight="700">5</text><text x="626" y="297" fill="#ddd">cost</text><text x="1164" y="297" fill="#fff" text-anchor="end" font-weight="700">$0.918540</text></g>
    <g stroke="#30313f"><line x1="626" y1="207" x2="1164" y2="207"/><line x1="626" y1="241" x2="1164" y2="241"/><line x1="626" y1="275" x2="1164" y2="275"/><line x1="626" y1="309" x2="1164" y2="309"/></g>
    <text x="626" y="347" fill="#d9a7c0" font-size="17" font-weight="700">Token usage trend</text>
    <g stroke="#363746"><line x1="654" y1="378" x2="1152" y2="378"/><line x1="654" y1="432" x2="1152" y2="432"/><line x1="654" y1="486" x2="1152" y2="486"/></g>
    <path d="M658 476 L738 464 L818 431 L898 448 L978 414 L1058 427 L1138 382" fill="none" stroke="#e9b4c9" stroke-width="4" stroke-linecap="round" stroke-linejoin="round"/>
    <path d="M658 485 L738 478 L818 456 L898 466 L978 443 L1058 451 L1138 419" fill="none" stroke="#f6c177" stroke-width="2.5"/>
    <g font-size="12" fill="#9e9eb2"><text x="654" y="510">07-15</text><text x="882" y="510">07-18</text><text x="1116" y="510">07-21</text></g>
    <circle cx="632" cy="536" r="5" fill="#e9b4c9"/><text x="644" y="541" fill="#9e9eb2" font-size="12">total</text><circle cx="698" cy="536" r="5" fill="#f6c177"/><text x="710" y="541" fill="#9e9eb2" font-size="12">sonnet</text>
    <text x="626" y="577" fill="#d9a7c0" font-size="17" font-weight="700">Model burn</text>
    <g font-size="12"><text x="626" y="607" fill="#9e9eb2">model</text><text x="878" y="607" fill="#9e9eb2">input</text><text x="972" y="607" fill="#9e9eb2">output</text><text x="1164" y="607" fill="#9e9eb2" text-anchor="end">total</text><line x1="626" y1="617" x2="1164" y2="617" stroke="#38394a"/><text x="626" y="634" fill="#e9b4c9">claude-sonnet</text><text x="878" y="634" fill="#ddd">411,245</text><text x="972" y="634" fill="#ddd">75,666</text><text x="1164" y="634" fill="#ddd" text-anchor="end">486,911</text></g>
  </g>
</svg>
